<svg version="1.1" xmlns="http://www.w3.org/2000/svg" xmlns:xlink="http://www.w3.org/1999/xlink" width="178.96192" height="96.05983" viewBox="0,0,178.96192,96.05983"><defs><radialGradient cx="320.00001" cy="180" r="34.70103" gradientUnits="userSpaceOnUse" id="color-1"><stop offset="0" stop-color="#9bd957"/><stop offset="1" stop-color="#b2ff66"/></radialGradient><radialGradient cx="402.9021" cy="180" r="34.70103" gradientUnits="userSpaceOnUse" id="color-2"><stop offset="0" stop-color="#abffe8"/><stop offset="1" stop-color="#66ffc4"/></radialGradient></defs><g transform="translate(-271.97009,-131.97009)"><g data-paper-data="{&quot;isPaintingLayer&quot;:true}" fill-rule="nonzero" stroke-linecap="butt" stroke-linejoin="miter" stroke-miterlimit="10" stroke-dasharray="" stroke-dashoffset="0" style="mix-blend-mode: normal"><path d="M276.9701,179.80284c0,-23.65588 19.17688,-42.83275 42.83275,-42.83275c23.65587,0 42.83275,19.17687 42.83275,42.83275c0,23.65588 -19.17687,42.83275 -42.83275,42.83275c-23.65587,0 -42.83275,-19.17687 -42.83275,-42.83275z" fill="#ffffff" stroke="#ffffff" stroke-width="10"/><path d="M360.26652,180.19717c0,-23.65588 19.17688,-42.83275 42.83275,-42.83275c23.65587,0 42.83275,19.17687 42.83275,42.83275c0,23.65588 -19.17687,42.83275 -42.83275,42.83275c-23.65587,0 -42.83275,-19.17687 -42.83275,-42.83275z" fill="#ffffff" stroke="#ffffff" stroke-width="10"/><path d="M285.29898,180c0,-19.16485 15.53618,-34.70103 34.70103,-34.70103c19.16485,0 34.70103,15.53618 34.70103,34.70103c0,19.16485 -15.53618,34.70103 -34.70103,34.70103c-19.16485,0 -34.70103,-15.53618 -34.70103,-34.70103z" fill="url(#color-1)" stroke="none" stroke-width="NaN"/><path d="M285.29898,180c0,-19.16485 15.53618,-34.70103 34.70103,-34.70103c19.16485,0 34.70103,15.53618 34.70103,34.70103c0,19.16485 -15.53618,34.70103 -34.70103,34.70103c-19.16485,0 -34.70103,-15.53618 -34.70103,-34.70103z" fill="none" stroke="#7bb346" stroke-width="3.5"/><path d="M368.20107,180c0,-19.16485 15.53618,-34.70103 34.70103,-34.70103c19.16485,0 34.70103,15.53618 34.70103,34.70103c0,19.16485 -15.53618,34.70103 -34.70103,34.70103c-19.16485,0 -34.70103,-15.53618 -34.70103,-34.70103z" fill="url(#color-2)" stroke="#46b395" stroke-width="3.5"/></g></g></svg>