<svg version="1.1" xmlns="http://www.w3.org/2000/svg" xmlns:xlink="http://www.w3.org/1999/xlink" width="113.6711" height="78.77916" viewBox="0,0,113.6711,78.77916"><g transform="translate(-263.24136,-140.61818)"><g data-paper-data="{&quot;isPaintingLayer&quot;:true}" stroke-miterlimit="10" stroke-dasharray="" stroke-dashoffset="0" style="mix-blend-mode: normal"><g data-paper-data="{&quot;index&quot;:null}"><path d="M313.52613,165.22101c-1.72466,-3.10041 -3.81401,-5.98384 -6.22323,-8.58806c5.23415,-1.40769 10.3036,-3.36884 15.12245,-5.84984c3.98245,-2.95852 7.69025,-6.27011 11.07735,-9.89494c1.05795,-0.24893 5.16528,2.48929 9.77047,8.71252c2.7403,3.78123 4.8425,7.98565 6.22323,12.44646z" fill="#f37b20" fill-rule="nonzero" stroke="none" stroke-width="1" stroke-linecap="butt" stroke-linejoin="miter"/><path d="M328.27519,145.36891c5.40135,4.6222 9.55307,10.52888 12.07307,17.17612" fill="none" fill-rule="evenodd" stroke="#f05822" stroke-width="0.5" stroke-linecap="round" stroke-linejoin="round"/><path d="M322.11419,150.59642c3.95632,3.50492 6.95467,7.95951 8.71252,12.94432" fill="none" fill-rule="evenodd" stroke="#f05822" stroke-width="0.5" stroke-linecap="round" stroke-linejoin="round"/><path d="M315.0197,153.70804c3.07884,2.89422 5.49843,6.41781 7.09448,10.33056" fill="none" fill-rule="evenodd" stroke="#f05822" stroke-width="0.5" stroke-linecap="round" stroke-linejoin="round"/><path d="M335.55636,145.61784l1.99143,2.1159" fill="#f37b20" fill-rule="nonzero" stroke="#ffffff" stroke-width="0.5" stroke-linecap="round" stroke-linejoin="round"/><path d="M339.2903,149.7874c1.81096,2.21713 3.31781,4.66576 4.48073,7.28118" fill="#f37b20" fill-rule="nonzero" stroke="#ffffff" stroke-width="0.5" stroke-linecap="round" stroke-linejoin="round"/><path d="M329.02197,150.09856c0.47048,0.46633 0.90693,0.96543 1.30688,1.49358" fill="#f37b20" fill-rule="nonzero" stroke="#ffffff" stroke-width="0.5" stroke-linecap="round" stroke-linejoin="round"/><path d="M331.88466,153.33464c1.05795,1.4247 2.01467,2.92201 2.86269,4.48073" fill="#f37b20" fill-rule="nonzero" stroke="#ffffff" stroke-width="0.5" stroke-linecap="round" stroke-linejoin="round"/><path d="M323.04767,154.76598l-0.68456,-0.80902" fill="#f37b20" fill-rule="nonzero" stroke="#ffffff" stroke-width="0.5" stroke-linecap="round" stroke-linejoin="round"/><path d="M324.04339,156.07286c0.59785,0.74637 1.13885,1.53714 1.61804,2.36483" fill="#f37b20" fill-rule="nonzero" stroke="#ffffff" stroke-width="0.5" stroke-linecap="round" stroke-linejoin="round"/><path d="M315.26863,157.81537l-0.37339,-0.49786" fill="#f37b20" fill-rule="nonzero" stroke="#ffffff" stroke-width="0.5" stroke-linecap="round" stroke-linejoin="round"/><path d="M316.07765,158.74885l1.18241,1.9292" fill="#f37b20" fill-rule="nonzero" stroke="#ffffff" stroke-width="0.5" stroke-linecap="round" stroke-linejoin="round"/><path d="M313.52613,165.22101c-1.72466,-3.10041 -3.81401,-5.98384 -6.22323,-8.58806c5.23415,-1.40769 10.3036,-3.36884 15.12245,-5.84984c3.98245,-2.95852 7.69025,-6.27011 11.07735,-9.89494c1.05795,-0.24893 5.16528,2.48929 9.77047,8.71252c2.7403,3.78123 4.8425,7.98565 6.22323,12.44646" fill="none" fill-rule="evenodd" stroke="#dd3627" stroke-width="0.54" stroke-linecap="round" stroke-linejoin="round"/><path d="M285.08597,196.52386c5.04082,-5.16528 7.77904,-7.9035 12.44646,-6.78332c4.66742,1.12018 6.22323,3.92064 15.74477,7.96574c12.29005,4.75621 25.80151,5.34617 38.45956,1.68027c8.45405,-3.58292 16.1916,-8.66398 22.83926,-14.99799c-0.80902,9.52154 -17.86067,22.59033 -37.33938,22.59033c-28.3157,0 -35.28572,-13.81557 -41.26002,-13.81557c-4.29403,0 -6.22323,5.47644 -12.44646,10.2061c-5.87846,3.95673 -13.04804,5.51544 -20.0388,4.35626c-0.07841,-1.11894 -0.07841,-2.24161 0,-3.36054c7.96739,0.44807 15.77091,-2.38516 21.59461,-7.84127z" fill="#e24217" fill-rule="nonzero" stroke="#e24217" stroke-width="0.5" stroke-linecap="round" stroke-linejoin="round"/><path d="M300.83074,176.48506c-3.58956,2.29554 -8.31631,1.63546 -11.13958,-1.55581c-3.32403,-4.1733 -7.58944,-7.50024 -12.44646,-9.70824c-4.35087,-1.72301 -9.01622,-2.50755 -13.69111,-2.3026c-0.04605,-0.89158 -0.04605,-1.78441 0,-2.67599c6.98993,-1.12765 14.14789,0.42857 20.0388,4.35626c6.22323,4.72966 8.33913,10.2061 12.44646,10.2061c6.22323,0 12.94432,-13.81557 41.26002,-13.81557c16.86495,0 32.11187,10.14387 36.09474,19.04309c-8.65734,-8.0624 -19.46502,-13.44467 -31.11615,-15.49584c-21.03452,-3.8584 -35.16125,7.9035 -41.44672,11.9486z" fill="#f07126" fill-rule="nonzero" stroke="none" stroke-width="1" stroke-linecap="butt" stroke-linejoin="miter"/><path d="M287.2641,184.0774c-7.09282,-0.11824 -13.75998,-3.40618 -18.17183,-8.96145c-2.9187,-3.55678 -4.75496,-7.87654 -5.28975,-12.44646c4.67489,-0.20495 9.34024,0.57959 13.69111,2.3026c4.85702,2.208 9.12243,5.53494 12.44646,9.70824c2.82327,3.19127 7.55002,3.85135 11.13958,1.55581c6.22323,-3.79617 20.4122,-15.55808 41.44672,-11.9486c11.65113,2.05118 22.45881,7.43344 31.11615,15.49584c0.64971,1.31932 1.01065,2.76187 1.05795,4.2318c0,0 0,0.43563 0,0.68456c-6.64765,6.334 -14.3852,11.41506 -22.83926,14.99799c-12.65805,3.6659 -26.16951,3.07594 -38.45956,-1.68027c-9.33485,-4.0451 -10.95289,-6.90779 -15.74477,-8.02797c-4.79189,-1.12018 -7.46788,1.68027 -12.44646,6.84555c-5.71666,5.34493 -13.34012,8.16986 -21.15898,7.84127c0.58083,-4.32846 2.37147,-8.4051 5.16528,-11.76191c4.41932,-5.46151 11.023,-8.6951 18.04737,-8.83699z" fill="#f05822" fill-rule="nonzero" stroke="none" stroke-width="1" stroke-linecap="butt" stroke-linejoin="miter"/><path d="M348.56292,205.60978c-0.9368,4.77529 -2.84319,9.30788 -5.60091,13.31771c-4.25752,0.88162 -8.57478,-1.21353 -10.51726,-5.10305c0,-0.68456 4.29403,-2.36483 6.97002,-7.09448z" fill="#f37b20" fill-rule="nonzero" stroke="none" stroke-width="1" stroke-linecap="butt" stroke-linejoin="miter"/><path d="M317.01114,203.92951c0,0 -2.05367,7.03225 -5.53868,8.52583c-0.99572,0.43563 -3.73394,-4.79189 -4.10733,-13.06878z" fill="#f37b20" fill-rule="nonzero" stroke="none" stroke-width="1" stroke-linecap="butt" stroke-linejoin="miter"/><path d="M276.8713,195.15475c-3.67793,2.90625 -7.9147,5.02464 -12.44646,6.22323" fill="none" fill-rule="evenodd" stroke="#dd3627" stroke-width="0.5" stroke-linecap="round" stroke-linejoin="round"/><path d="M264.42484,165.90557c4.67282,1.26373 8.95274,3.68208 12.44646,7.03225" fill="none" fill-rule="evenodd" stroke="#dd3627" stroke-width="0.5" stroke-linecap="round" stroke-linejoin="round"/><path d="M352.98141,187.74911c-4.2275,0 -7.65457,-3.42707 -7.65457,-7.65457c0,-4.2275 3.42707,-7.65457 7.65457,-7.65457c4.2275,0 7.65457,3.42707 7.65457,7.65457c0,4.2275 -3.42707,7.65457 -7.65457,7.65457z" fill="#ffffff" fill-rule="nonzero" stroke="none" stroke-width="1" stroke-linecap="butt" stroke-linejoin="miter"/><path d="M353.79043,186.31776c-3.437,0 -6.22323,-2.78624 -6.22323,-6.22323c0,-3.437 2.78624,-6.22323 6.22323,-6.22323c3.437,0 6.22323,2.78624 6.22323,6.22323c0,3.437 -2.78624,6.22323 -6.22323,6.22323z" fill="#b71b13" fill-rule="nonzero" stroke="#b71b13" stroke-width="0.5" stroke-linecap="round" stroke-linejoin="round"/><path d="M339.60146,198.3286c-2.73656,-4.38613 -4.00112,-9.53191 -3.60947,-14.68682c-0.47545,-5.00472 0.80031,-10.0194 3.60947,-14.18897" fill="none" fill-rule="evenodd" stroke="#fdbb38" stroke-width="0.5" stroke-linecap="round" stroke-linejoin="round"/><path d="M329.4576,196.52386c-2.18975,-0.09957 -3.99614,-1.74914 -4.29403,-3.92064c-0.30535,-2.22377 0.99489,-4.35585 3.11162,-5.10305c-2.10968,-0.60448 -3.6074,-2.47643 -3.73394,-4.66742c0.1087,-2.15822 1.63049,-3.98494 3.73394,-4.48073c-1.94165,-0.83516 -3.05063,-2.89878 -2.67599,-4.97858c0.37339,-3.11162 3.8584,-3.92064 3.8584,-3.92064" fill="none" fill-rule="evenodd" stroke="#fdbb38" stroke-width="0.5" stroke-linecap="round" stroke-linejoin="round"/><path d="M318.56695,192.54099c-1.63173,-1.16167 -2.60463,-3.03777 -2.61376,-5.04082c-0.16803,-1.92837 0.87167,-3.76091 2.61376,-4.60519c-1.6923,-0.95879 -2.70254,-2.78676 -2.61376,-4.72966c0.03153,-1.79851 1.03098,-3.43979 2.61376,-4.29403" fill="none" fill-rule="evenodd" stroke="#dd3627" stroke-width="0.5" stroke-linecap="round" stroke-linejoin="round"/><path d="M310.9746,191.66974c-1.53631,-1.08284 -2.44324,-2.85024 -2.42706,-4.72966c-0.15724,-1.79561 0.80778,-3.50285 2.42706,-4.29403c-1.58029,-0.92519 -2.51543,-2.65151 -2.42706,-4.48073c0.0307,-1.68442 0.95547,-3.22529 2.42706,-4.0451" fill="none" fill-rule="evenodd" stroke="#fdbb38" stroke-width="0.5" stroke-linecap="round" stroke-linejoin="round"/><path d="M302.44878,187.25125c-2.14245,-2.19887 -2.14245,-5.70463 0,-7.9035" fill="none" fill-rule="evenodd" stroke="#ffffff" stroke-width="0.5" stroke-linecap="round" stroke-linejoin="round"/><path d="M344.89121,206.10764c-1.56742,4.51599 -3.90445,8.72704 -6.90779,12.44646" fill="none" fill-rule="evenodd" stroke="#f05822" stroke-width="0.5" stroke-linecap="round" stroke-linejoin="round"/><path d="M342.27745,206.54326c-1.67944,3.99614 -4.25627,7.5521 -7.53011,10.39279" fill="none" fill-rule="evenodd" stroke="#f05822" stroke-width="0.5" stroke-linecap="round" stroke-linejoin="round"/><path d="M312.21925,202.0003c0.18919,3.49497 0.00166,7.0003 -0.56009,10.45503" fill="none" fill-rule="evenodd" stroke="#f05822" stroke-width="0.5" stroke-linecap="round" stroke-linejoin="round"/><path d="M319.12704,167.83477l2.1159,-0.74679" fill="none" fill-rule="evenodd" stroke="#ffffff" stroke-width="0.54" stroke-linecap="round" stroke-linejoin="round"/><path d="M323.85669,166.40343c2.47519,-0.59121 4.99311,-0.98659 7.53011,-1.18241" fill="none" fill-rule="evenodd" stroke="#ffffff" stroke-width="0.54" stroke-linecap="round" stroke-linejoin="round"/><path d="M317.01114,203.92951c0,0 -2.05367,7.03225 -5.53868,8.52583c-0.99572,0.43563 -3.73394,-4.79189 -4.10733,-13.06878" fill="none" fill-rule="evenodd" stroke="#dd3627" stroke-width="0.54" stroke-linecap="round" stroke-linejoin="round"/><path d="M348.56292,205.60978c-0.9368,4.77529 -2.84319,9.30788 -5.60091,13.31771c-4.25752,0.88162 -8.57478,-1.21353 -10.51726,-5.10305c0,-0.68456 4.29403,-2.36483 6.97002,-7.09448" fill="none" fill-rule="evenodd" stroke="#dd3627" stroke-width="0.54" stroke-linecap="round" stroke-linejoin="round"/><path d="M269.09226,192.60323c4.43509,-5.51793 11.09353,-8.77849 18.17183,-8.89922c-7.09282,-0.11824 -13.75998,-3.40618 -18.17183,-8.96145c-3.42402,-4.30979 -5.347,-9.61987 -5.47644,-15.12245c6.98993,-1.12765 14.14789,0.42857 20.0388,4.35626c6.22323,4.72966 8.33913,10.2061 12.44646,10.2061c6.22323,0 12.94432,-13.81557 41.26002,-13.81557c19.66541,0 37.33938,13.69111 37.33938,23.27488c0,0 0,0.43563 0,0.68456c-0.80902,9.52154 -17.86067,22.59033 -37.33938,22.59033c-28.3157,0 -35.28572,-13.81557 -41.26002,-13.81557c-4.29403,0 -6.22323,5.47644 -12.44646,10.2061c-5.87846,3.95673 -13.04804,5.51544 -20.0388,4.35626c-0.07841,-1.11894 -0.07841,-2.24161 0,-3.36054c0.68165,-4.33967 2.58057,-8.39638 5.47644,-11.69967z" fill="none" fill-rule="evenodd" stroke="#b71b13" stroke-width="0.54" stroke-linecap="round" stroke-linejoin="round"/><path d="M372.41863,190.17617c-2.29133,0 -4.14882,-3.06486 -4.14882,-6.84555c0,-3.78069 1.85749,-6.84555 4.14882,-6.84555c2.29133,0 4.14882,3.06486 4.14882,6.84555c0,3.78069 -1.85749,6.84555 -4.14882,6.84555z" fill="#b71b13" fill-rule="nonzero" stroke="#b71b13" stroke-width="0.69" stroke-linecap="round" stroke-linejoin="round"/></g></g></g></svg>